<svg width="77" height="80" viewBox="0 0 77 80" fill="none" xmlns="http://www.w3.org/2000/svg">
<path d="M76.4706 37.6471C76.4706 44.5987 74.557 51.1103 71.2201 56.699C64.5766 67.8257 52.2918 75.2941 38.2353 75.2941C24.2081 75.2941 11.9452 67.8568 5.29211 56.7685C1.92954 51.1644 0 44.6276 0 37.6471C0 16.8552 17.1185 0 38.2353 0C59.3521 0 76.4706 16.8552 76.4706 37.6471Z" fill="#542828"/>
<path d="M71.2201 56.699C64.5766 67.8257 52.2918 75.2941 38.2353 75.2941C24.2081 75.2941 11.9452 67.8568 5.29211 56.7685C12.2241 69.8272 22.7415 80 38.2353 80C53.8242 80 64.1516 70.1497 71.2201 56.699Z" fill="#542828"/>
<path d="M5.99144 26.6756C5.84119 26.6305 5.70108 26.6336 5.57113 26.6847C5.43367 26.7335 5.32401 26.8399 5.24216 27.0036L5.80966 25.1104C5.79541 25.2126 5.8424 25.3699 5.95063 25.5825C6.05885 25.7951 6.30006 26.0557 6.67425 26.3644L12.7052 31.2795L4.91768 32.1016C4.46995 32.1475 4.14619 32.2306 3.94638 32.3509C3.74132 32.4614 3.608 32.5647 3.54642 32.6608L4.11054 30.7789C4.10233 30.9975 4.2034 31.1383 4.41376 31.2014C4.52646 31.2352 4.65455 31.2449 4.79803 31.2306C4.94151 31.2163 5.02565 31.2087 5.05044 31.208L11.0587 30.6263L6.48732 26.947C6.33705 26.8201 6.17175 26.7296 5.99144 26.6756Z" fill="white"/>
<path d="M15.5917 24.3028C15.6109 24.3163 15.6252 24.2688 15.6345 24.1603C15.6374 24.0472 15.5974 23.9134 15.5143 23.759C15.4249 23.6 15.2519 23.4301 14.9954 23.2494L10.1676 19.8477C9.91115 19.667 9.69622 19.5636 9.52281 19.5373C9.34751 19.5002 9.21032 19.5042 9.11123 19.5496C9.01214 19.5949 8.969 19.6221 8.98183 19.6311L10.0593 18.102C10.0464 18.0929 10.0354 18.1427 10.026 18.2512C10.0167 18.3598 10.0568 18.4936 10.1462 18.6526C10.2293 18.807 10.399 18.9746 10.6555 19.1553L15.4833 22.557C15.7398 22.7377 15.9579 22.8434 16.1377 22.8742C16.3111 22.9004 16.4474 22.8909 16.5465 22.8456C16.6456 22.8002 16.6887 22.7731 16.6759 22.764L15.5917 24.3028Z" fill="white"/>
<path d="M21.5474 7.90888C21.4703 7.99047 21.4309 8.127 21.4292 8.31847C21.4296 8.49903 21.5386 8.74767 21.7563 9.06439L25.9211 15.1241L16.9788 12.7477L20.1707 17.3918C20.384 17.7021 20.5899 17.8841 20.7887 17.9379C20.983 17.9851 21.1385 17.9829 21.2552 17.9313L19.8882 18.8708C19.9653 18.7893 20.0069 18.656 20.013 18.471C20.0211 18.275 19.9163 18.0187 19.6987 17.702L16.3668 12.8542C16.2158 12.6345 16.0037 12.4852 15.7307 12.4064C15.4576 12.3276 15.1924 12.3433 14.9351 12.4535L16.1373 11.6272L24.3296 13.8054L21.2909 9.38425C20.9489 8.88655 20.5787 8.70795 20.1804 8.84847L21.5474 7.90888Z" fill="white"/>
<path d="M35.6482 12.1245C35.6517 12.1477 35.6959 12.1252 35.7807 12.0568C35.8643 11.9806 35.9332 11.8591 35.9872 11.6923C36.04 11.5177 36.0429 11.2753 35.9959 10.9651L35.5954 8.3247L31.2219 8.98809L31.6224 11.6285C31.6694 11.9387 31.7441 12.1693 31.8463 12.3204C31.9474 12.4637 32.0486 12.5554 32.1498 12.5956C32.2511 12.6358 32.3006 12.6481 32.2982 12.6326L30.4488 12.9131C30.4523 12.9364 30.4965 12.9138 30.5813 12.8454C30.665 12.7693 30.7299 12.6484 30.7762 12.4827C30.829 12.3081 30.8319 12.0657 30.7849 11.7555L29.8992 5.91642C29.8521 5.60624 29.7781 5.37949 29.677 5.23616C29.5825 5.08391 29.4846 4.9877 29.3833 4.94753C29.2821 4.90736 29.2326 4.89503 29.2349 4.91054L31.0844 4.63001C31.082 4.6145 31.0384 4.64095 30.9536 4.70934C30.8688 4.77774 30.8 4.89924 30.7471 5.07384C30.6931 5.2407 30.6896 5.47921 30.7367 5.78939L31.1442 8.4763L35.5177 7.8129L35.1102 5.12599C35.0631 4.81581 34.9891 4.58906 34.888 4.44574C34.7857 4.29465 34.684 4.19903 34.5827 4.15887C34.4814 4.1187 34.4319 4.10637 34.4343 4.12188L36.2837 3.84135C36.2802 3.81808 36.2366 3.84453 36.153 3.92068C36.0681 3.98907 35.9993 4.11057 35.9465 4.28518C35.9002 4.45086 35.9006 4.68878 35.9476 4.99896L36.8333 10.8381C36.8804 11.1482 36.955 11.3789 37.0573 11.5299C37.1584 11.6733 37.2595 11.765 37.3608 11.8052C37.4621 11.8453 37.5116 11.8577 37.5092 11.8422L35.6482 12.1245Z" fill="white"/>
<path d="M42.5345 12.323C42.5288 12.3458 42.5783 12.3421 42.6829 12.3119C42.7896 12.2741 42.8982 12.1802 43.0089 12.0302C43.1291 11.8745 43.2305 11.6331 43.313 11.3061L44.7271 5.70543C44.8058 5.39364 44.8273 5.1483 44.7916 4.96941C44.7654 4.78483 44.7143 4.6506 44.6385 4.56673C44.5626 4.48285 44.5217 4.45232 44.516 4.47513L48.6452 5.51769L48.3572 6.65836C48.3355 6.16753 47.9825 5.83572 47.2981 5.66292L45.7126 5.2626L44.8946 8.50212L46.8566 8.99748C47.0087 9.03588 47.1437 9.0457 47.2617 9.02696C47.3816 9.0006 47.4749 8.96753 47.5416 8.92774C47.6082 8.88795 47.6473 8.86141 47.6587 8.84812L47.3794 9.95458C47.3756 9.93745 47.3538 9.89555 47.3141 9.82887C47.2743 9.7622 47.2069 9.69261 47.1119 9.62011C47.0246 9.54952 46.9049 9.49503 46.7528 9.45663L44.7794 8.95839L43.9615 12.1979L45.741 12.6472C46.0832 12.7336 46.3932 12.7391 46.6711 12.6636C46.9586 12.5825 47.1833 12.4451 47.3455 12.2515L46.8349 13.4087L42.5345 12.323Z" fill="white"/>
<path d="M55.5318 13.3428C55.8269 13.5503 56.1309 13.6634 56.4438 13.6821C56.7612 13.6944 57.0511 13.6298 57.3136 13.4883C57.587 13.345 57.8094 13.1514 57.9808 12.9077C58.1568 12.6574 58.2669 12.3849 58.3113 12.0901C58.3665 11.7934 58.3347 11.4977 58.2158 11.2032C58.097 10.9087 57.8804 10.6508 57.566 10.4298L56.748 9.85453L52.9852 15.2051C52.8048 15.4617 52.6992 15.6799 52.6686 15.8598C52.6426 16.0332 52.6522 16.1695 52.6976 16.2685C52.7476 16.3611 52.777 16.401 52.786 16.3882L51.2559 15.3122C51.2469 15.325 51.2967 15.336 51.4053 15.3453C51.5138 15.3545 51.6421 15.3153 51.7901 15.2275C51.9445 15.1444 52.1119 14.9744 52.2924 14.7178L55.6762 9.90617C55.8611 9.64313 55.9689 9.42169 55.9995 9.24185C56.041 9.0601 56.0391 8.9197 55.9937 8.82065C55.9528 8.71519 55.9256 8.67208 55.912 8.69132L57.8175 10.0313C58.3179 10.3832 58.6698 10.7554 58.8733 11.1478C59.0877 11.5382 59.173 11.9146 59.1291 12.2769C59.0962 12.6373 58.9715 12.9715 58.7549 13.2794C58.5744 13.5361 58.3353 13.7466 58.0374 13.9111C57.7441 14.0692 57.4165 14.16 57.0547 14.1836C56.7038 14.2054 56.3528 14.1455 56.0017 14.004L55.8274 13.9246L56.0052 17.2713C56.0537 17.6794 56.1044 18.0027 56.1573 18.2412C56.2101 18.4797 56.2528 18.644 56.2853 18.734C56.3243 18.8286 56.348 18.8835 56.3563 18.899L55.2304 18.1072L54.9544 12.9367L55.5318 13.3428Z" fill="white"/>
<path d="M59.09 22.098C59.0711 22.112 59.1116 22.1405 59.2117 22.1837C59.318 22.2222 59.4576 22.2265 59.6304 22.1965C59.8095 22.1619 60.0253 22.0515 60.2779 21.8654L65.0314 18.3606C65.2839 18.1745 65.4501 18.0033 65.5298 17.847C65.6204 17.6925 65.66 17.561 65.6483 17.4527C65.6366 17.3444 65.6245 17.2949 65.6119 17.3042L66.7219 18.8098C66.7345 18.8005 66.6908 18.7742 66.5908 18.7311C66.4908 18.6879 66.3512 18.6836 66.1721 18.7182C65.9993 18.7482 65.7866 18.8562 65.5341 19.0424L60.7805 22.5471C60.528 22.7333 60.3587 22.9068 60.2727 23.0677C60.193 23.2239 60.159 23.3562 60.1706 23.4645C60.1823 23.5729 60.1945 23.6224 60.2071 23.6131L59.09 22.098Z" fill="white"/>
<path d="M66.258 28.4045L64.2481 28.242C63.936 28.216 63.6902 28.231 63.5104 28.287C63.2633 28.3639 63.1223 28.5311 63.0875 28.7884L62.5871 27.1822C62.6105 27.257 62.7192 27.3423 62.9133 27.4379C63.1073 27.5335 63.4544 27.6061 63.9546 27.6557L71.8431 28.4145L65.7403 33.507C65.3873 33.7977 65.1592 34.0413 65.0561 34.2377C64.9553 34.4416 64.9114 34.5908 64.9244 34.6854L64.3436 32.8208C64.4918 32.98 64.6595 33.0305 64.8467 32.9721C65.0039 32.9232 65.2099 32.7933 65.4646 32.5825L67.1292 31.2014L66.258 28.4045ZM67.5338 30.8782L70.1514 28.7197L66.778 28.452L67.5338 30.8782Z" fill="white"/>
<path d="M14.7645 52.5839L12.749 52.5249C12.436 52.515 12.1912 52.5426 12.0146 52.6077C11.7718 52.6973 11.6396 52.8715 11.618 53.1302L11.0357 51.5518C11.0629 51.6254 11.1758 51.705 11.3745 51.7905C11.5733 51.876 11.9237 51.9307 12.4257 51.9545L20.3428 52.3068L14.5098 57.7063C14.1722 58.0148 13.957 58.2697 13.8641 58.4712C13.7739 58.68 13.7378 58.8313 13.7556 58.925L13.0797 57.0927C13.2359 57.2441 13.4059 57.2859 13.5899 57.218C13.7444 57.161 13.9435 57.0207 14.187 56.7971L15.7784 55.3323L14.7645 52.5839ZM16.1658 54.9888L18.669 52.6985L15.2863 52.6046L16.1658 54.9888Z" fill="white"/>
<path d="M18.8806 65.4687C18.3523 64.9434 17.9735 64.3454 17.7442 63.675C17.515 63.0046 17.4853 62.3114 17.6552 61.5955C17.8252 60.8796 18.2281 60.2019 18.8641 59.5623C19.4282 58.9951 20.0622 58.6134 20.766 58.4173C21.4753 58.2268 22.1908 58.2359 22.9123 58.4446C23.6395 58.6589 24.3089 59.0702 24.9206 59.6786C25.3099 60.0657 25.6161 60.4586 25.839 60.8573C26.0675 61.2615 26.221 61.6077 26.2995 61.8959L25.3786 62.8218C25.5049 62.3501 25.4868 61.851 25.3245 61.3246C25.1678 60.8037 24.9115 60.3663 24.5555 60.0123C24.0606 59.5201 23.5245 59.1972 22.9473 59.0435C22.3812 58.8898 21.81 58.908 21.2337 59.0982C20.6575 59.2884 20.1122 59.6421 19.5979 60.1593C19.0393 60.721 18.6721 61.3126 18.4964 61.9343C18.3262 62.5614 18.3279 63.1604 18.5014 63.7311C18.6749 64.3019 18.9814 64.8057 19.4207 65.2426C19.6209 65.4417 19.8488 65.6241 20.1044 65.7898C20.3711 65.9554 20.6404 66.085 20.9124 66.1785L22.2812 64.8021C22.4526 64.6297 22.5576 64.4685 22.596 64.3187C22.6399 64.1633 22.6479 64.0329 22.6198 63.9276C22.5973 63.8168 22.5806 63.7669 22.5695 63.778L23.9042 65.1053C23.9153 65.0942 23.8709 65.0722 23.7709 65.0392C23.671 65.0062 23.5463 65.0093 23.3966 65.0485C23.2525 65.0822 23.0975 65.1825 22.9316 65.3493L21.4218 66.8676C20.9445 66.758 20.4837 66.5818 20.0394 66.339C19.6061 66.0962 19.2199 65.8061 18.8806 65.4687Z" fill="white"/>
<path d="M35.6887 65.364C35.5771 65.3511 35.4442 65.4014 35.2899 65.5148C35.1456 65.6233 35.0119 65.8596 34.8888 66.2236L32.5334 73.1891L29.0772 64.6061L27.2719 69.9445C27.1514 70.3011 27.1291 70.5751 27.2051 70.7664C27.2837 70.9502 27.3787 71.0734 27.49 71.1359L25.9186 70.6045C26.0302 70.6174 26.1618 70.5709 26.3136 70.4649C26.4753 70.354 26.6177 70.1165 26.7408 69.7524L28.6251 64.18C28.7105 63.9274 28.703 63.6682 28.6024 63.4024C28.5019 63.1366 28.3304 62.9337 28.088 62.7937L29.4699 63.2611L32.6353 71.1248L34.3538 66.0427C34.5473 65.4707 34.4684 65.0673 34.1173 64.8326L35.6887 65.364Z" fill="white"/>
<path d="M38.135 73.3355C38.1368 73.3589 38.1826 73.3397 38.2722 73.2778C38.3613 73.2081 38.4345 73.0845 38.4918 72.9071C38.5562 72.7213 38.5757 72.4602 38.55 72.124L38.111 66.3642C38.0865 66.0436 38.0289 65.8041 37.9382 65.6458C37.8547 65.4791 37.7636 65.3681 37.665 65.3127C37.5664 65.2573 37.518 65.2413 37.5198 65.2648L41.7663 64.941L41.8557 66.1141C41.6792 65.6556 41.239 65.4532 40.5351 65.5069L38.9046 65.6312L39.1586 68.9627L41.1762 68.8088C41.3326 68.7969 41.4638 68.7633 41.5697 68.7081C41.675 68.645 41.753 68.584 41.8035 68.5251C41.8541 68.4661 41.8827 68.4286 41.8893 68.4123L41.9761 69.5502C41.9671 69.5352 41.9331 69.5023 41.8742 69.4518C41.8153 69.4012 41.7293 69.3566 41.6162 69.3181C41.511 69.2789 41.3801 69.2653 41.2237 69.2772L39.1943 69.4319L39.4483 72.7634L41.2783 72.6239C41.6302 72.5971 41.9259 72.5037 42.1655 72.3439C42.4122 72.1756 42.5817 71.9739 42.6739 71.7388L42.5575 72.9983L38.135 73.3355Z" fill="white"/>
<path d="M45.159 65.1345C45.0299 64.8486 44.8974 64.6502 44.7614 64.5395C44.6293 64.4184 44.5091 64.3522 44.4007 64.3409C44.2923 64.3296 44.2414 64.331 44.2478 64.3453L45.9529 63.5759C45.9464 63.5616 45.9116 63.5988 45.8484 63.6876C45.7852 63.7764 45.7517 63.9119 45.748 64.0943C45.741 64.2696 45.802 64.5002 45.9311 64.7861L48.6168 70.7376L50.3755 69.944C50.6972 69.7988 50.9434 69.6102 51.114 69.3783C51.2887 69.136 51.3792 68.8886 51.3858 68.6362L51.7057 69.8599L47.5772 71.723C47.5869 71.7445 47.6233 71.7108 47.6865 71.6221C47.7465 71.5262 47.7732 71.385 47.7665 71.1987C47.7638 71.002 47.6931 70.75 47.5544 70.4426L45.159 65.1345Z" fill="white"/>
<path d="M51.3852 61.6188C51.1664 61.394 50.9742 61.2527 50.8086 61.195C50.6431 61.1262 50.5075 61.1049 50.4018 61.1312C50.296 61.1575 50.2486 61.1762 50.2596 61.1875L51.6002 59.883C51.5893 59.8717 51.5692 59.9186 51.5401 60.0236C51.5109 60.1286 51.5256 60.2674 51.5843 60.4402C51.6375 60.6073 51.7735 60.8033 51.9922 61.0281L56.5457 65.7077L57.9285 64.3622C58.1815 64.1161 58.3487 63.8549 58.4301 63.5787C58.5117 63.2914 58.5125 63.0279 58.4326 62.7883L59.1505 63.8298L55.9043 66.9885C55.9207 67.0054 55.9435 66.9613 55.9726 66.8563C55.9963 66.7457 55.9733 66.604 55.9036 66.4311C55.834 66.2471 55.6816 66.0343 55.4464 65.7926L51.3852 61.6188Z" fill="white"/>
<path d="M58.5639 58.4904C57.7937 58.1774 57.1735 57.7349 56.7033 57.1628C56.2361 56.5835 55.9564 55.928 55.8643 55.1963C55.7752 54.4574 55.8901 53.6956 56.209 52.9109C56.4748 52.2569 56.8681 51.7056 57.3891 51.257C57.9057 50.7981 58.5205 50.5146 59.2333 50.4064C59.949 50.2909 60.7102 50.397 61.5167 50.7248C62.2869 51.0378 62.9056 51.484 63.3729 52.0633C63.8431 52.6354 64.1227 53.2909 64.2119 54.0298C64.304 54.7614 64.1906 55.5196 63.8717 56.3044C63.6059 56.9583 63.2147 57.5147 62.698 57.9736C62.1771 58.4222 61.5587 58.7042 60.8429 58.8197C60.1301 58.928 59.3705 58.8182 58.5639 58.4904ZM61.3258 51.6632C60.6646 51.3945 60.0127 51.2904 59.3701 51.3509C58.7231 51.4013 58.1533 51.6057 57.6605 51.9641C57.1633 52.3124 56.7937 52.7845 56.5516 53.3803C56.3301 53.9252 56.2703 54.4681 56.3722 55.0091C56.477 55.5427 56.7351 56.0328 57.1462 56.4792C57.5501 56.9228 58.0863 57.2804 58.7548 57.552C59.416 57.8208 60.0701 57.93 60.717 57.8796C61.3597 57.8191 61.9295 57.6147 62.4266 57.2664C62.9194 56.9079 63.2869 56.4308 63.5291 55.835C63.7505 55.29 63.8088 54.7507 63.704 54.2171C63.6021 53.6762 63.3492 53.1839 62.9453 52.7404C62.5341 52.2939 61.9943 51.9349 61.3258 51.6632Z" fill="white"/>
<path d="M55.8824 40C55.8824 49.7462 47.9815 57.6471 38.2353 57.6471C28.4891 57.6471 20.5882 49.7462 20.5882 40C20.5882 30.2538 28.4891 22.3529 38.2353 22.3529C47.9815 22.3529 55.8824 30.2538 55.8824 40Z" fill="#242424"/>
</svg>
